# Blender 5.0.0
# www.blender.org
mtllib garagem_parte_dentro_pilares.mtl
o Obj_Concret_Columns
v 1.186308 0.001925 -28.335938
v 1.186308 9.916636 -28.335938
v 1.186308 0.001925 -29.035555
v 1.186308 9.916636 -29.035555
v 1.887487 0.001925 -28.335938
v 1.887487 9.916636 -28.335938
v 1.887487 0.001925 -29.035555
v 1.887487 9.916636 -29.035555
v 1.267892 8.713778 -29.035555
v 1.267892 9.916636 -29.035555
v 1.819665 9.916636 -29.035555
v 1.819665 8.713778 -29.035555
v 1.267892 9.916636 -28.335938
v 1.819665 8.713778 -28.335938
v 1.819665 9.916636 -28.335938
v 1.267892 8.713778 -28.335938
v 1.186308 0.001925 0.705635
v 1.186308 9.916636 0.705635
v 1.186308 0.001925 0.006018
v 1.186308 9.916636 0.006018
v 1.887487 0.001925 0.705635
v 1.887487 9.916636 0.705635
v 1.887487 0.001925 0.006018
v 1.887487 9.916636 0.006018
v 1.267892 8.713778 0.006018
v 1.267892 9.916636 0.006018
v 1.819665 9.916636 0.006018
v 1.819665 8.713778 0.006018
v 1.267892 9.916636 0.705635
v 1.819665 8.713778 0.705635
v 1.819665 9.916636 0.705635
v 1.267892 8.713778 0.705635
v 1.291196 8.715163 0.731674
v 1.291196 10.018299 0.731674
v 1.291196 8.715163 -29.037823
v 1.291196 10.018299 -29.037823
v 1.791506 8.715163 0.731674
v 1.791506 10.018299 0.731674
v 1.791506 8.715163 -29.037823
v 1.791506 10.018299 -29.037823
v 30.121971 0.001925 0.705635
v 30.121971 9.916636 0.705635
v 30.121971 0.001925 0.006018
v 30.121971 9.916636 0.006018
v 30.823151 0.001925 0.705635
v 30.823151 9.916636 0.705635
v 30.823151 0.001925 0.006018
v 30.823151 9.916636 0.006018
v 30.203554 8.713778 0.006018
v 30.203554 9.916636 0.006018
v 30.755329 9.916636 0.006018
v 30.755329 8.713778 0.006018
v 30.203554 9.916636 0.705635
v 30.755329 8.713778 0.705635
v 30.755329 9.916636 0.705635
v 30.203554 8.713778 0.705635
v 30.226860 8.715163 0.731674
v 30.226860 10.018299 0.731674
v 30.226860 8.715163 -29.037823
v 30.226860 10.018299 -29.037823
v 30.727169 8.715163 0.731674
v 30.727169 10.018299 0.731674
v 30.727169 8.715163 -29.037823
v 30.727169 10.018299 -29.037823
v 30.121971 0.001925 -28.335938
v 30.121971 9.916636 -28.335938
v 30.121971 0.001925 -29.035555
v 30.121971 9.916636 -29.035555
v 30.823151 0.001925 -28.335938
v 30.823151 9.916636 -28.335938
v 30.823151 0.001925 -29.035555
v 30.823151 9.916636 -29.035555
v 30.203554 8.713778 -29.035555
v 30.203554 9.916636 -29.035555
v 30.755329 9.916636 -29.035555
v 30.755329 8.713778 -29.035555
v 30.203554 9.916636 -28.335938
v 30.755329 8.713778 -28.335938
v 30.755329 9.916636 -28.335938
v 30.203554 8.713778 -28.335938
v 17.320633 8.715163 0.731674
v 17.320633 10.018299 0.731674
v 17.320633 8.715163 -29.037823
v 17.320633 10.018299 -29.037823
v 17.820942 8.715163 0.731674
v 17.820942 10.018299 0.731674
v 17.820942 8.715163 -29.037823
v 17.820942 10.018299 -29.037823
v 17.215744 0.001925 0.705635
v 17.215744 9.916636 0.705635
v 17.215744 0.001925 0.006018
v 17.215744 9.916636 0.006018
v 17.916924 0.001925 0.705635
v 17.916924 9.916636 0.705635
v 17.916924 0.001925 0.006018
v 17.916924 9.916636 0.006018
v 17.297327 8.713778 0.006018
v 17.297327 9.916636 0.006018
v 17.849102 9.916636 0.006018
v 17.849102 8.713778 0.006018
v 17.297327 9.916636 0.705635
v 17.849102 8.713778 0.705635
v 17.849102 9.916636 0.705635
v 17.297327 8.713778 0.705635
v 17.215744 0.001925 -28.335938
v 17.215744 9.916636 -28.335938
v 17.215744 0.001925 -29.035555
v 17.215744 9.916636 -29.035555
v 17.916924 0.001925 -28.335938
v 17.916924 9.916636 -28.335938
v 17.916924 0.001925 -29.035555
v 17.916924 9.916636 -29.035555
v 17.297327 8.713778 -29.035555
v 17.297327 9.916636 -29.035555
v 17.849102 9.916636 -29.035555
v 17.849102 8.713778 -29.035555
v 17.297327 9.916636 -28.335938
v 17.849102 8.713778 -28.335938
v 17.849102 9.916636 -28.335938
v 17.297327 8.713778 -28.335938
v 46.212891 0.001925 0.705635
v 46.212891 9.916636 0.705635
v 46.212891 0.001925 0.006018
v 46.212891 9.916636 0.006018
v 46.914070 0.001925 0.705635
v 46.914070 9.916636 0.705635
v 46.914070 0.001925 0.006018
v 46.914070 9.916636 0.006018
v 46.294472 8.713778 0.006018
v 46.294472 9.916636 0.006018
v 46.846245 9.916636 0.006018
v 46.846245 8.713778 0.006018
v 46.294472 9.916636 0.705635
v 46.846245 8.713778 0.705635
v 46.846245 9.916636 0.705635
v 46.294472 8.713778 0.705635
v 46.317780 8.715163 0.731674
v 46.317780 10.018299 0.731674
v 46.317780 8.715163 -29.037823
v 46.317780 10.018299 -29.037823
v 46.818092 8.715163 0.731674
v 46.818092 10.018299 0.731674
v 46.818092 8.715163 -29.037823
v 46.818092 10.018299 -29.037823
v 46.212891 0.001925 -28.335938
v 46.212891 9.916636 -28.335938
v 46.212891 0.001925 -29.035555
v 46.212891 9.916636 -29.035555
v 46.914070 0.001925 -28.335938
v 46.914070 9.916636 -28.335938
v 46.914070 0.001925 -29.035555
v 46.914070 9.916636 -29.035555
v 46.294472 8.713778 -29.035555
v 46.294472 9.916636 -29.035555
v 46.846245 9.916636 -29.035555
v 46.846245 8.713778 -29.035555
v 46.294472 9.916636 -28.335938
v 46.846245 8.713778 -28.335938
v 46.846245 9.916636 -28.335938
v 46.294472 8.713778 -28.335938
vn -1.0000 -0.0000 -0.0000
vn -0.0000 -0.0000 -1.0000
vn 1.0000 -0.0000 -0.0000
vn -0.0000 -0.0000 1.0000
vn -0.0000 -1.0000 -0.0000
vn -0.0000 1.0000 -0.0000
vt 0.141442 1.000000
vt 0.141442 0.000000
vt 0.212006 0.000000
vt 0.212006 1.000000
vt 0.063881 0.000000
vt 0.070721 0.000000
vt 0.070721 1.000000
vt 0.000000 1.000000
vt 0.000000 0.000000
vt 0.008229 0.000000
vt 0.008229 0.121320
vt 0.063881 0.121320
vt 0.212006 1.000000
vt 0.212006 0.000000
vt 0.282569 0.000000
vt 0.282569 1.000000
vt 0.133214 0.000000
vt 0.141442 0.000000
vt 0.141442 1.000000
vt 0.070721 1.000000
vt 0.070721 0.000000
vt 0.077562 0.000000
vt 0.077562 0.121320
vt 0.133214 0.121320
vt 0.353133 0.242641
vt 0.353133 0.313362
vt 0.282569 0.313362
vt 0.282569 0.242641
vt 0.282569 0.454489
vt 0.282569 0.383926
vt 0.290798 0.383926
vt 0.290798 0.454489
vt 0.289410 0.454489
vt 0.289410 0.525053
vt 0.282569 0.525053
vt 0.282569 0.454489
vt 0.353133 0.121321
vt 0.282569 0.121321
vt 0.282569 0.000000
vt 0.353133 0.000000
vt 0.353133 0.242641
vt 0.282569 0.121320
vt 0.353133 0.121320
vt 0.338221 0.313362
vt 0.338221 0.383926
vt 0.282569 0.383926
vt 0.282569 0.313362
vt 1.317033 0.541461
vt 1.317033 0.613455
vt -0.327635 0.613455
vt -0.327635 0.541461
vt -0.255641 0.414186
vt -0.327635 0.414186
vt -0.327635 0.386545
vt -0.255641 0.386545
vt 1.317033 0.469467
vt 1.317033 0.541461
vt -0.327635 0.541461
vt -0.327635 0.469467
vt -0.183647 0.414186
vt -0.255641 0.414186
vt -0.183647 0.386545
vt 1.317033 0.441826
vt -0.327635 0.441826
vt 1.317033 0.414186
vt -0.327635 0.414186
vt 0.311253 -1.417288
vt 0.311253 2.417288
vt 0.040672 2.417288
vt 0.040672 -1.417288
vt 0.608669 2.417288
vt 0.582439 2.417288
vt 0.582439 -1.417288
vt 0.853624 -1.417288
vt 0.853624 2.417288
vt 0.822071 2.417288
vt 0.822071 1.952076
vt 0.608669 1.952076
vt -0.229909 2.417288
vt -0.229909 -1.417288
vt 0.342806 2.417288
vt 0.556208 2.417288
vt 0.556208 1.952076
vt 0.342806 1.952076
vt -0.500491 1.486862
vt -0.500491 1.215677
vt -0.229910 1.215677
vt -0.229910 1.486862
vt -0.229909 0.674515
vt -0.229909 0.945096
vt -0.261462 0.945096
vt -0.261462 0.674515
vt -0.256140 0.674515
vt -0.256140 0.403933
vt -0.229909 0.403933
vt -0.500491 1.952074
vt -0.229909 1.952074
vt -0.500491 2.417288
vt -0.500491 1.486862
vt -0.229910 1.952076
vt -0.500491 1.952076
vt -0.443312 1.215677
vt -0.443312 0.945096
vt -0.229909 1.215677
vt 1.237032 0.537303
vt 1.237032 0.602078
vt -0.242712 0.602078
vt -0.242712 0.537303
vt -0.177938 0.422791
vt -0.242712 0.422791
vt -0.242712 0.397922
vt -0.177938 0.397922
vt 1.237032 0.472528
vt 1.237032 0.537303
vt -0.242712 0.537303
vt -0.242712 0.472528
vt -0.113163 0.422791
vt -0.113163 0.397922
vt 1.237032 0.447660
vt -0.242712 0.447660
vt 1.237032 0.422791
vt 2.164984 0.584801
vt 2.164984 0.732052
vt -1.198893 0.732052
vt -1.198893 0.584801
vt -1.051641 0.324482
vt -1.198893 0.324482
vt -1.198893 0.267948
vt -1.051641 0.267948
vt 2.164984 0.437549
vt 2.164984 0.584801
vt -1.198893 0.584800
vt -1.198893 0.437549
vt -0.904391 0.324482
vt -1.051641 0.324482
vt -0.904391 0.267948
vt 2.164984 0.381016
vt -1.198893 0.381016
vt 2.164984 0.324482
vt -1.198893 0.324482
vt 1.428004 0.546932
vt 1.428004 0.628426
vt -0.433685 0.628426
vt -0.433685 0.546932
vt -0.352191 0.402862
vt -0.433685 0.402862
vt -0.433685 0.371574
vt -0.352191 0.371574
vt 1.428004 0.465438
vt 1.428004 0.546932
vt -0.433685 0.546932
vt -0.433685 0.465438
vt -0.270697 0.402862
vt -0.352191 0.402862
vt -0.270697 0.371574
vt 1.428004 0.434150
vt -0.433685 0.434150
vt 1.428004 0.402862
vt -0.433685 0.402862
s 0
usemtl Mat_Beton
f 1/1/1 2/2/1 4/3/1 3/4/1
f 11/5/2 8/6/2 7/7/2 3/8/2 4/9/2 10/10/2 9/11/2 12/12/2
f 7/13/3 8/14/3 6/15/3 5/16/3
f 13/17/4 2/18/4 1/19/4 5/20/4 6/21/4 15/22/4 14/23/4 16/24/4
f 3/25/5 7/26/5 5/27/5 1/28/5
f 4/29/6 2/30/6 13/31/6 10/32/6
f 6/33/6 8/34/6 11/35/6 15/36/6
f 16/37/3 9/38/3 10/39/3 13/40/3
f 12/41/1 14/28/1 15/42/1 11/43/1
f 14/44/6 12/45/6 9/46/6 16/47/6
f 17/1/1 18/2/1 20/3/1 19/4/1
f 27/5/2 24/6/2 23/7/2 19/8/2 20/9/2 26/10/2 25/11/2 28/12/2
f 23/13/3 24/14/3 22/15/3 21/16/3
f 29/17/4 18/18/4 17/19/4 21/20/4 22/21/4 31/22/4 30/23/4 32/24/4
f 19/25/5 23/26/5 21/27/5 17/28/5
f 20/29/6 18/30/6 29/31/6 26/32/6
f 22/33/6 24/34/6 27/35/6 31/36/6
f 32/37/3 25/38/3 26/39/3 29/40/3
f 28/41/1 30/28/1 31/42/1 27/43/1
f 30/44/6 28/45/6 25/46/6 32/47/6
f 41/67/1 42/68/1 44/69/1 43/70/1
f 51/71/2 48/72/2 47/73/2 43/74/2 44/75/2 50/76/2 49/77/2 52/78/2
f 47/70/3 48/69/3 46/79/3 45/80/3
f 53/81/4 42/68/4 41/67/4 45/73/4 46/72/4 55/82/4 54/83/4 56/84/4
f 43/85/5 47/86/5 45/87/5 41/88/5
f 44/89/6 42/90/6 53/91/6 50/92/6
f 46/93/6 48/94/6 51/95/6 55/89/6
f 56/96/3 49/97/3 50/79/3 53/98/3
f 52/99/1 54/88/1 55/100/1 51/101/1
f 54/102/6 52/103/6 49/90/6 56/104/6
f 65/1/1 66/2/1 68/3/1 67/4/1
f 75/5/2 72/6/2 71/7/2 67/8/2 68/9/2 74/10/2 73/11/2 76/12/2
f 71/13/3 72/14/3 70/15/3 69/16/3
f 77/17/4 66/18/4 65/19/4 69/20/4 70/21/4 79/22/4 78/23/4 80/24/4
f 67/25/5 71/26/5 69/27/5 65/28/5
f 68/29/6 66/30/6 77/31/6 74/32/6
f 70/33/6 72/34/6 75/35/6 79/36/6
f 80/37/3 73/38/3 74/39/3 77/40/3
f 76/41/1 78/28/1 79/42/1 75/43/1
f 78/44/6 76/45/6 73/46/6 80/47/6
f 89/1/1 90/2/1 92/3/1 91/4/1
f 99/5/2 96/6/2 95/7/2 91/8/2 92/9/2 98/10/2 97/11/2 100/12/2
f 95/13/3 96/14/3 94/15/3 93/16/3
f 101/17/4 90/18/4 89/19/4 93/20/4 94/21/4 103/22/4 102/23/4 104/24/4
f 91/25/5 95/26/5 93/27/5 89/28/5
f 92/29/6 90/30/6 101/31/6 98/32/6
f 94/33/6 96/34/6 99/35/6 103/36/6
f 104/37/3 97/38/3 98/39/3 101/40/3
f 100/41/1 102/28/1 103/42/1 99/43/1
f 102/44/6 100/45/6 97/46/6 104/47/6
f 105/1/1 106/2/1 108/3/1 107/4/1
f 115/5/2 112/6/2 111/7/2 107/8/2 108/9/2 114/10/2 113/11/2 116/12/2
f 111/13/3 112/14/3 110/15/3 109/16/3
f 117/17/4 106/18/4 105/19/4 109/20/4 110/21/4 119/22/4 118/23/4 120/24/4
f 107/25/5 111/26/5 109/27/5 105/28/5
f 108/29/6 106/30/6 117/31/6 114/32/6
f 110/33/6 112/34/6 115/35/6 119/36/6
f 120/37/3 113/38/3 114/39/3 117/40/3
f 116/41/1 118/28/1 119/42/1 115/43/1
f 118/44/6 116/45/6 113/46/6 120/47/6
f 121/1/1 122/2/1 124/3/1 123/4/1
f 131/5/2 128/6/2 127/7/2 123/8/2 124/9/2 130/10/2 129/11/2 132/12/2
f 127/13/3 128/14/3 126/15/3 125/16/3
f 133/17/4 122/18/4 121/19/4 125/20/4 126/21/4 135/22/4 134/23/4 136/24/4
f 123/25/5 127/26/5 125/27/5 121/28/5
f 124/29/6 122/30/6 133/31/6 130/32/6
f 126/33/6 128/34/6 131/35/6 135/36/6
f 136/37/3 129/38/3 130/39/3 133/40/3
f 132/41/1 134/28/1 135/42/1 131/43/1
f 134/44/6 132/45/6 129/46/6 136/47/6
f 145/1/1 146/2/1 148/3/1 147/4/1
f 155/5/2 152/6/2 151/7/2 147/8/2 148/9/2 154/10/2 153/11/2 156/12/2
f 151/13/3 152/14/3 150/15/3 149/16/3
f 157/17/4 146/18/4 145/19/4 149/20/4 150/21/4 159/22/4 158/23/4 160/24/4
f 147/25/5 151/26/5 149/27/5 145/28/5
f 148/29/6 146/30/6 157/31/6 154/32/6
f 150/33/6 152/34/6 155/35/6 159/36/6
f 160/37/3 153/38/3 154/39/3 157/40/3
f 156/41/1 158/28/1 159/42/1 155/43/1
f 158/44/6 156/45/6 153/46/6 160/47/6
usemtl Mat_Wood
f 33/48/1 34/49/1 36/50/1 35/51/1
f 35/52/2 36/53/2 40/54/2 39/55/2
f 39/56/3 40/57/3 38/58/3 37/59/3
f 37/60/4 38/61/4 34/55/4 33/62/4
f 35/63/5 39/56/5 37/59/5 33/64/5
f 40/65/6 36/63/6 34/64/6 38/66/6
f 57/105/1 58/106/1 60/107/1 59/108/1
f 59/109/2 60/110/2 64/111/2 63/112/2
f 63/113/3 64/114/3 62/115/3 61/116/3
f 61/117/4 62/109/4 58/112/4 57/118/4
f 59/119/5 63/113/5 61/116/5 57/120/5
f 64/121/6 60/119/6 58/120/6 62/110/6
f 81/122/1 82/123/1 84/124/1 83/125/1
f 83/126/2 84/127/2 88/128/2 87/129/2
f 87/130/3 88/131/3 86/132/3 85/133/3
f 85/134/4 86/135/4 82/129/4 81/136/4
f 83/137/5 87/130/5 85/133/5 81/138/5
f 88/139/6 84/137/6 82/138/6 86/140/6
f 137/141/1 138/142/1 140/143/1 139/144/1
f 139/145/2 140/146/2 144/147/2 143/148/2
f 143/149/3 144/150/3 142/151/3 141/152/3
f 141/153/4 142/154/4 138/148/4 137/155/4
f 139/156/5 143/149/5 141/152/5 137/157/5
f 144/158/6 140/156/6 138/157/6 142/159/6
