# Blender 5.0.0
# www.blender.org
mtllib luz_frente.mtl
o luz_frente
v 0.810868 0.023330 -1.635761
v 0.570271 0.023968 -1.648812
v 0.516118 -0.082176 -1.664573
v 0.790764 -0.081492 -1.666401
v -0.810868 0.023330 -1.635761
v -0.570271 0.023968 -1.648812
v -0.516118 -0.082176 -1.664573
v -0.790764 -0.081492 -1.666401
vn 0.0213 0.2076 -0.9780
vn -0.0213 0.2076 -0.9780
vt 0.579866 0.500000
vt 0.633365 0.500000
vt 0.633843 0.500000
vt 0.579401 0.500000
s 0
usemtl Material
f 3/1/1 2/2/1 1/3/1 4/4/1
f 7/1/2 8/4/2 5/3/2 6/2/2
