# Blender 5.0.0
# www.blender.org
mtllib vidro_porta_frente_esquerdo.mtl
o vidro_porta_frente_esquerdo
v -0.627138 0.581868 0.039109
v -0.693474 0.310948 -0.079340
v -0.693801 0.326109 0.280723
v -0.627178 0.613263 0.321294
v -0.693322 0.296697 -0.418735
v -0.627222 0.548767 -0.258692
vn -0.9715 0.2365 -0.0177
vn -0.9668 0.2550 -0.0190
vt 0.553667 0.615800
vt 0.553504 0.615800
vt 0.592347 0.615806
vt 0.592194 0.615806
vt 0.553816 0.615800
vt 0.592001 0.615806
s 0
usemtl Material
f 2/1/1 3/2/1 4/3/1 1/4/1
f 5/5/2 2/1/2 1/4/2 6/6/2
