# Blender 5.0.0
# www.blender.org
mtllib vidro_porta_tras_direito.mtl
o vidro_porta_tras_direito
v 0.625217 0.603813 0.650231
v 0.626122 0.582153 1.056687
v 0.624707 0.618996 0.357651
v 0.695021 0.324937 0.316154
v 0.625034 0.391827 1.157019
v 0.664442 0.287911 0.995102
v 0.664999 0.301314 0.587561
v 0.695234 0.296822 1.174743
vn 0.9917 0.1287 0.0051
vn 0.9630 0.2609 0.0669
vn 0.9833 0.1704 0.0632
vt 0.561332 0.620020
vt 0.552867 0.610871
vt 0.597523 0.620535
vt 0.614635 0.639089
vt 0.120221 0.130697
vt 0.498924 0.556670
vt 0.033128 0.036324
vt 0.033503 0.035154
s 0
usemtl Material
f 6/1/1 7/2/1 1/3/1 2/4/1
f 5/5/2 8/6/2 6/1/2 2/4/2
f 4/7/3 3/8/3 1/3/3 7/2/3
