# Blender 5.0.0
# www.blender.org
mtllib vidro_atras.mtl
o vidro_tras
v 0.376090 0.524422 1.438998
v 0.000000 0.530170 1.438998
v 0.376090 0.660135 1.244598
v 0.376090 0.395495 1.595160
v 0.000000 0.401243 1.595160
v 0.000000 0.636735 1.213767
v 0.376090 0.660135 1.244598
v -0.376090 0.524422 1.438998
v -0.376090 0.660135 1.244598
v -0.376090 0.395495 1.595160
v -0.376090 0.660135 1.244598
vn 0.0118 0.7711 0.6366
vn -0.0408 0.8653 0.4996
vn -0.0118 0.7711 0.6366
vn 0.0408 0.8653 0.4996
vt 0.606662 0.615808
vt 0.749931 0.594289
s 0
usemtl Material
f 1/1/1 2/2/1 5/2/1 4/1/1
f 3/1/2 7/1/2 6/2/2 2/2/2 1/1/2
f 8/1/3 10/1/3 5/2/3 2/2/3
f 9/1/4 8/1/4 2/2/4 6/2/4 11/1/4
