# Blender 5.0.0
# www.blender.org
mtllib volante.mtl
o INT_WHEEL.002
v -0.267054 -0.060652 0.018726
v -0.250524 -0.056120 0.000268
v -0.223408 -0.048893 0.007007
v -0.223181 -0.048958 0.029630
v -0.250155 -0.056225 0.036873
v -0.267050 0.075468 0.019116
v -0.250520 0.071042 0.000632
v -0.223405 0.063775 0.007330
v -0.223177 0.063710 0.029953
v -0.250152 0.070937 0.037237
v -0.198990 0.193351 0.018768
v -0.186939 0.181167 0.000307
v -0.167071 0.161348 0.007042
v -0.166843 0.161283 0.029665
v -0.186570 0.181063 0.036912
v -0.081110 0.261411 0.017776
v -0.076817 0.244748 -0.000620
v -0.069500 0.217682 0.006221
v -0.069272 0.217618 0.028844
v -0.076448 0.244644 0.035986
v 0.055003 0.261411 0.016406
v 0.050340 0.244748 -0.001900
v 0.043163 0.217682 0.005087
v 0.043390 0.217618 0.027710
v 0.050708 0.244644 0.034705
v 0.172879 0.193352 0.015024
v 0.160458 0.181167 -0.003191
v 0.140730 0.161348 0.003943
v 0.140958 0.161283 0.026566
v 0.160827 0.181063 0.033415
v 0.240932 0.075468 0.014001
v 0.224033 0.071042 -0.004146
v 0.197059 0.063775 0.003096
v 0.197286 0.063710 0.025720
v 0.224402 0.070937 0.032459
v 0.240928 -0.060652 0.013611
v 0.224030 -0.056120 -0.004510
v 0.197055 -0.048893 0.002774
v 0.197283 -0.048958 0.025397
v 0.224398 -0.056225 0.032095
v 0.172868 -0.178535 0.013959
v 0.160448 -0.166246 -0.004186
v 0.140721 -0.146467 0.003061
v 0.140949 -0.146532 0.025685
v 0.160817 -0.166351 0.032420
v 0.054988 -0.246595 0.014951
v 0.050326 -0.229827 -0.003259
v 0.043151 -0.202801 0.003882
v 0.043378 -0.202866 0.026506
v 0.050695 -0.229932 0.033346
v -0.081125 -0.246595 0.016321
v -0.076830 -0.229827 -0.001979
v -0.069512 -0.202801 0.005017
v -0.069285 -0.202866 0.027640
v -0.076462 -0.229932 0.034627
v -0.199001 -0.178535 0.017703
v -0.186949 -0.166246 -0.000688
v -0.167080 -0.146467 0.006160
v -0.166852 -0.146532 0.028784
v -0.186580 -0.166351 0.035917
v -0.105512 -0.031402 0.036209
v -0.105510 0.046109 0.036431
v -0.080248 -0.072686 0.035836
v -0.105511 0.007354 0.036320
v -0.234574 0.046184 0.011548
v -0.234430 0.046143 0.025860
v -0.234431 0.007388 0.025749
v -0.205599 -0.095552 0.010850
v -0.205454 -0.095593 0.025163
v -0.180335 -0.136836 0.010477
v -0.180191 -0.136877 0.024790
v -0.234575 0.007429 0.011437
v -0.105773 0.046184 0.010251
v -0.105774 0.007429 0.010140
v -0.105776 -0.031327 0.010029
v -0.080512 -0.072611 0.009656
v -0.096673 0.034425 0.001234
v -0.096674 0.003359 0.001145
v -0.096674 -0.027707 0.001056
v -0.076423 -0.060800 0.000758
v 0.079771 -0.031402 0.034343
v 0.079773 0.046109 0.034565
v 0.054505 -0.072686 0.034480
v 0.079772 0.007354 0.034454
v 0.208310 0.046184 0.007088
v 0.208454 0.046143 0.021401
v 0.208453 0.007388 0.021290
v 0.179327 -0.095552 0.006974
v 0.179471 -0.095593 0.021287
v 0.154061 -0.136836 0.007110
v 0.154205 -0.136877 0.021423
v 0.208309 0.007429 0.006977
v 0.079510 0.046184 0.008385
v 0.079508 0.007429 0.008274
v 0.079507 -0.031327 0.008163
v 0.054241 -0.072611 0.008299
v 0.070229 0.034425 -0.000446
v 0.070228 0.003359 -0.000535
v 0.070227 -0.027707 -0.000624
v 0.049974 -0.060800 -0.000515
vn -0.7452 0.0019 -0.6669
vn 0.2405 0.0028 -0.9706
vn 0.9999 -0.0000 -0.0101
vn 0.2600 -0.0028 0.9656
vn -0.7316 -0.0019 0.6817
vn -0.6462 0.3711 -0.6668
vn 0.2070 -0.1224 -0.9707
vn 0.8660 -0.5000 -0.0102
vn 0.2265 -0.1279 0.9656
vn -0.6327 0.3673 0.6818
vn -0.3760 0.6414 -0.6688
vn 0.1154 -0.2140 -0.9700
vn 0.4999 -0.8660 -0.0075
vn 0.1349 -0.2195 0.9662
vn -0.3624 0.6376 0.6799
vn -0.0068 0.7403 -0.6722
vn -0.0098 -0.2475 -0.9688
vn -0.0000 -1.0000 -0.0029
vn 0.0097 -0.2530 0.9674
vn 0.0068 0.7365 0.6764
vn 0.3624 0.6414 -0.6762
vn -0.1349 -0.2140 -0.9675
vn -0.5000 -0.8660 0.0026
vn -0.1154 -0.2195 0.9688
vn 0.3760 0.6376 0.6724
vn 0.6327 0.3711 -0.6797
vn -0.2265 -0.1224 -0.9663
vn -0.8660 -0.5000 0.0073
vn -0.2070 -0.1279 0.9699
vn 0.6463 0.3673 0.6689
vn 0.7316 0.0019 -0.6817
vn -0.2600 0.0028 -0.9656
vn -0.9999 -0.0000 0.0101
vn -0.2405 -0.0028 0.9706
vn 0.7452 -0.0019 0.6669
vn 0.6327 -0.3673 -0.6818
vn -0.2265 0.1279 -0.9656
vn -0.8660 0.5000 0.0102
vn -0.2070 0.1224 0.9707
vn 0.6462 -0.3711 0.6668
vn 0.3624 -0.6376 -0.6799
vn -0.1349 0.2195 -0.9662
vn -0.4999 0.8660 0.0075
vn -0.1154 0.2140 0.9700
vn 0.3760 -0.6414 0.6688
vn -0.0068 -0.7365 -0.6764
vn -0.0097 0.2530 -0.9674
vn -0.0000 1.0000 0.0029
vn 0.0098 0.2475 0.9688
vn 0.0068 -0.7403 0.6722
vn -0.3760 -0.6376 -0.6724
vn 0.1154 0.2195 -0.9688
vn 0.5000 0.8660 -0.0026
vn 0.1349 0.2140 0.9675
vn -0.3624 -0.6414 0.6762
vn -0.6463 -0.3673 -0.6689
vn 0.2070 0.1279 -0.9699
vn 0.8660 0.5000 -0.0073
vn 0.2265 0.1224 0.9663
vn -0.6327 -0.3711 0.6797
vn 0.0101 -0.0029 0.9999
vn -0.0101 0.0029 -0.9999
vn -0.0080 0.6045 -0.7965
vn -0.0817 -0.0029 0.9967
vn -0.8529 -0.5220 0.0071
vn -0.5410 0.8410 0.0079
vn -0.0749 -0.0548 0.9957
vn 0.5410 -0.8410 -0.0079
vn -0.5832 -0.3503 -0.7329
vn -0.7025 0.0021 -0.7117
vn -0.0081 -0.6000 -0.8000
vn 0.1018 -0.0029 0.9948
vn 0.8529 -0.5220 -0.0101
vn 0.5411 0.8410 -0.0030
vn 0.0949 -0.0548 0.9940
vn -0.5411 -0.8410 0.0030
vn 0.5684 -0.3503 -0.7445
vn 0.6880 0.0021 -0.7257
vt 0.248102 0.922356
vt 0.246552 0.931657
s 0
usemtl BASIC
f 1/1/1 6/1/1 7/1/1 2/1/1
f 2/1/2 7/1/2 8/1/2 3/1/2
f 3/1/3 8/1/3 9/1/3 4/1/3
f 4/1/4 9/1/4 10/1/4 5/1/4
f 5/1/5 10/1/5 6/1/5 1/1/5
f 6/1/6 11/1/6 12/1/6 7/1/6
f 7/1/7 12/1/7 13/1/7 8/1/7
f 8/1/8 13/1/8 14/1/8 9/1/8
f 9/1/9 14/1/9 15/1/9 10/1/9
f 10/1/10 15/1/10 11/1/10 6/1/10
f 11/1/11 16/1/11 17/1/11 12/1/11
f 12/1/12 17/1/12 18/1/12 13/1/12
f 13/1/13 18/1/13 19/1/13 14/1/13
f 14/1/14 19/1/14 20/1/14 15/1/14
f 15/1/15 20/1/15 16/1/15 11/1/15
f 16/1/16 21/1/16 22/1/16 17/1/16
f 17/1/17 22/1/17 23/1/17 18/1/17
f 18/1/18 23/1/18 24/1/18 19/1/18
f 19/1/19 24/1/19 25/1/19 20/1/19
f 20/1/20 25/1/20 21/1/20 16/1/20
f 21/1/21 26/1/21 27/1/21 22/1/21
f 22/1/22 27/1/22 28/1/22 23/1/22
f 23/1/23 28/1/23 29/1/23 24/1/23
f 24/1/24 29/1/24 30/1/24 25/1/24
f 25/1/25 30/1/25 26/1/25 21/1/25
f 26/1/26 31/1/26 32/1/26 27/1/26
f 27/1/27 32/1/27 33/1/27 28/1/27
f 28/1/28 33/1/28 34/1/28 29/1/28
f 29/1/29 34/1/29 35/1/29 30/1/29
f 30/1/30 35/1/30 31/1/30 26/1/30
f 31/1/31 36/1/31 37/1/31 32/1/31
f 32/1/32 37/1/32 38/1/32 33/1/32
f 33/1/33 38/1/33 39/1/33 34/1/33
f 34/1/34 39/1/34 40/1/34 35/1/34
f 35/1/35 40/1/35 36/1/35 31/1/35
f 36/1/36 41/1/36 42/1/36 37/1/36
f 37/1/37 42/1/37 43/1/37 38/1/37
f 38/1/38 43/1/38 44/1/38 39/1/38
f 39/1/39 44/1/39 45/1/39 40/1/39
f 40/1/40 45/1/40 41/1/40 36/1/40
f 41/1/41 46/1/41 47/1/41 42/1/41
f 42/1/42 47/1/42 48/1/42 43/1/42
f 43/1/43 48/1/43 49/1/43 44/1/43
f 44/1/44 49/1/44 50/1/44 45/1/44
f 45/1/45 50/1/45 46/1/45 41/1/45
f 46/1/46 51/1/46 52/1/46 47/1/46
f 47/1/47 52/1/47 53/1/47 48/1/47
f 48/1/48 53/1/48 54/1/48 49/1/48
f 49/1/49 54/1/49 55/1/49 50/1/49
f 50/1/50 55/1/50 51/1/50 46/1/50
f 51/1/51 56/1/51 57/1/51 52/1/51
f 52/1/52 57/1/52 58/1/52 53/1/52
f 53/1/53 58/1/53 59/1/53 54/1/53
f 54/1/54 59/1/54 60/1/54 55/1/54
f 55/1/55 60/1/55 56/1/55 51/1/55
f 56/1/56 1/1/56 2/1/56 57/1/56
f 57/1/57 2/1/57 3/1/57 58/1/57
f 58/1/58 3/1/58 4/1/58 59/1/58
f 59/1/59 4/1/59 5/1/59 60/1/59
f 60/1/60 5/1/60 1/1/60 56/1/60
f 64/2/61 84/2/61 82/2/61 62/2/61
f 64/2/33 74/2/33 75/2/33 61/2/33
f 63/2/61 83/2/61 81/2/61 61/2/61
f 62/2/48 82/2/48 93/2/48 73/2/48
f 73/2/62 74/2/62 72/2/62 65/2/62
f 93/2/63 97/2/63 77/2/63 73/2/63
f 64/2/64 62/2/64 66/2/64 67/2/64
f 69/2/65 68/2/65 70/2/65 71/2/65
f 66/2/33 65/2/33 72/2/33 67/2/33
f 61/2/66 75/2/66 68/2/66 69/2/66
f 63/2/67 61/2/67 69/2/67 71/2/67
f 74/2/18 64/2/18 67/2/18 72/2/18
f 75/2/62 76/2/62 70/2/62 68/2/62
f 76/2/68 63/2/68 71/2/68 70/2/68
f 62/2/48 73/2/48 65/2/48 66/2/48
f 61/2/61 81/2/61 84/2/61 64/2/61
f 76/2/69 75/2/69 79/2/69 80/2/69
f 74/2/70 73/2/70 77/2/70 78/2/70
f 80/2/71 100/2/71 96/2/71 76/2/71
f 77/2/62 97/2/62 98/2/62 78/2/62
f 99/2/62 100/2/62 80/2/62 79/2/62
f 75/2/70 74/2/70 78/2/70 79/2/70
f 99/2/62 79/2/62 78/2/62 98/2/62
f 84/2/3 81/2/3 95/2/3 94/2/3
f 93/2/62 85/2/62 92/2/62 94/2/62
f 84/2/72 87/2/72 86/2/72 82/2/72
f 89/2/73 91/2/73 90/2/73 88/2/73
f 86/2/3 87/2/3 92/2/3 85/2/3
f 81/2/74 89/2/74 88/2/74 95/2/74
f 83/2/75 91/2/75 89/2/75 81/2/75
f 94/2/18 92/2/18 87/2/18 84/2/18
f 95/2/62 88/2/62 90/2/62 96/2/62
f 96/2/76 90/2/76 91/2/76 83/2/76
f 82/2/48 86/2/48 85/2/48 93/2/48
f 96/2/77 100/2/77 99/2/77 95/2/77
f 94/2/78 98/2/78 97/2/78 93/2/78
f 95/2/78 99/2/78 98/2/78 94/2/78
f 83/2/18 63/2/18 76/2/18 96/2/18
